<?xml version="1.0" encoding="UTF-8"?>
<svg id="Layer_1" data-name="Layer 1" xmlns="http://www.w3.org/2000/svg" viewBox="0 0 202.97 53.83">
  <defs>
    <style>
      .cls-1 {
        fill: #fff;
      }

      .cls-2 {
        fill: #091912;
      }
    </style>
  </defs>
  <rect class="cls-2" width="202.97" height="53.83"/>
  <g>
    <path class="cls-1" d="M24.76,40.23c-7.31,0-12.71-5.76-12.71-13.35s5.4-12.81,12.71-12.81h14.18v4.57h-14.18c-4.68,0-8.14,3.49-8.14,8.46s3.42,8.57,8.14,8.57h14.18v4.57h-14.18Z"/>
    <path class="cls-1" d="M66.95,40.23l-6.62-7.27h-9.79v-4.03h10.91c3.28,0,5-1.87,5-5.26s-1.87-5.04-5-5.04h-14.25v21.6h-4.54V14.06h18.79c5.98,0,9.5,3.71,9.5,9.54,0,4.32-2.02,7.38-5.4,8.67l7.88,7.96h-6.48Z"/>
    <path class="cls-1" d="M84.7,40.23v-9.93l-13.89-16.23h6.16l10.19,12.06,10.22-12.06h5.83l-13.93,16.23v9.93h-4.57Z"/>
    <path class="cls-1" d="M113.83,32.96v-4.43h10.51c3.2,0,5.11-2.02,5.11-4.97s-1.91-4.93-5.11-4.93h-13.86v21.6h-4.54V14.06h18.39c6.05,0,9.57,3.64,9.57,9.36s-3.53,9.54-9.57,9.54h-10.51Z"/>
    <path class="cls-1" d="M145.54,40.23v-21.6h-9.93v-4.57h24.44v4.57h-9.93v21.6h-4.57Z"/>
    <path class="cls-1" d="M185.43,40.23l-3.92-6.59h-12.38l2.16-3.71h8.03l-5.83-9.79-11.88,20.09h-5.22l15.05-25.05c.54-.9,1.22-1.48,2.23-1.48s1.66.58,2.2,1.48l15.08,25.05h-5.51Z"/>
  </g>
</svg>