<?xml version="1.0" encoding="UTF-8"?>
<svg id="Layer_1" data-name="Layer 1" xmlns="http://www.w3.org/2000/svg" viewBox="0 0 178.88 26.53">
  <defs>
    <style>
      .cls-1 {
        fill: #091912;
      }
    </style>
  </defs>
  <path class="cls-1" d="M12.71,26.53C5.4,26.53,0,20.77,0,13.17S5.4.36,12.71.36h14.18v4.57h-14.18c-4.68,0-8.14,3.49-8.14,8.46s3.42,8.57,8.14,8.57h14.18v4.57h-14.18Z"/>
  <path class="cls-1" d="M54.9,26.53l-6.62-7.27h-9.79v-4.03h10.91c3.28,0,5-1.87,5-5.26s-1.87-5.04-5-5.04h-14.25v21.6h-4.54V.36h18.79c5.98,0,9.5,3.71,9.5,9.54,0,4.32-2.02,7.38-5.4,8.67l7.88,7.96h-6.48Z"/>
  <path class="cls-1" d="M72.65,26.53v-9.93L58.75.36h6.16l10.19,12.06L85.32.36h5.83l-13.93,16.23v9.93h-4.57Z"/>
  <path class="cls-1" d="M101.77,19.26v-4.43h10.51c3.2,0,5.11-2.02,5.11-4.97s-1.91-4.93-5.11-4.93h-13.86v21.6h-4.54V.36h18.39c6.05,0,9.57,3.64,9.57,9.36s-3.53,9.54-9.57,9.54h-10.51Z"/>
  <path class="cls-1" d="M133.49,26.53V4.93h-9.94V.36h24.44v4.57h-9.93v21.6h-4.57Z"/>
  <path class="cls-1" d="M173.37,26.53l-3.92-6.59h-12.38l2.16-3.71h8.03l-5.83-9.79-11.88,20.09h-5.22l15.05-25.05c.54-.9,1.22-1.48,2.23-1.48s1.66.58,2.2,1.48l15.08,25.05h-5.51Z"/>
</svg>